<?xml version="1.0" encoding="UTF-8"?>
<svg xmlns="http://www.w3.org/2000/svg" xmlns:xlink="http://www.w3.org/1999/xlink" width="854" height="480" viewBox="0 0 854 480">
<defs>
<g>
<g id="glyph-0-0">
<path d="M 4.902344 -1.585938 L 4.800781 0 L 0.328125 0 L 0.328125 -0.269531 C 0.402344 -0.273438 0.503906 -0.285156 0.628906 -0.300781 C 0.757812 -0.320312 0.839844 -0.335938 0.878906 -0.351562 C 0.957031 -0.390625 1.015625 -0.441406 1.046875 -0.5 C 1.078125 -0.5625 1.09375 -0.640625 1.09375 -0.734375 L 1.09375 -4.605469 C 1.09375 -4.691406 1.078125 -4.765625 1.050781 -4.828125 C 1.023438 -4.894531 0.964844 -4.945312 0.878906 -4.984375 C 0.808594 -5.019531 0.71875 -5.046875 0.601562 -5.074219 C 0.488281 -5.097656 0.394531 -5.113281 0.328125 -5.117188 L 0.328125 -5.390625 L 4.496094 -5.390625 L 4.496094 -4.089844 L 4.210938 -4.089844 C 4.160156 -4.28125 4.050781 -4.488281 3.882812 -4.703125 C 3.714844 -4.917969 3.554688 -5.039062 3.402344 -5.058594 C 3.324219 -5.070312 3.230469 -5.074219 3.121094 -5.082031 C 3.011719 -5.085938 2.886719 -5.089844 2.75 -5.089844 L 1.902344 -5.089844 L 1.902344 -2.945312 L 2.511719 -2.945312 C 2.707031 -2.945312 2.847656 -2.964844 2.9375 -3 C 3.027344 -3.039062 3.105469 -3.101562 3.175781 -3.1875 C 3.230469 -3.257812 3.277344 -3.359375 3.316406 -3.480469 C 3.355469 -3.601562 3.382812 -3.71875 3.394531 -3.828125 L 3.679688 -3.828125 L 3.679688 -1.714844 L 3.394531 -1.714844 C 3.386719 -1.839844 3.359375 -1.964844 3.3125 -2.101562 C 3.269531 -2.238281 3.222656 -2.335938 3.175781 -2.394531 C 3.097656 -2.496094 3.007812 -2.558594 2.90625 -2.589844 C 2.808594 -2.621094 2.675781 -2.636719 2.511719 -2.636719 L 1.902344 -2.636719 L 1.902344 -1.019531 C 1.902344 -0.859375 1.914062 -0.730469 1.9375 -0.636719 C 1.960938 -0.542969 2.003906 -0.472656 2.070312 -0.425781 C 2.136719 -0.378906 2.226562 -0.347656 2.339844 -0.332031 C 2.453125 -0.316406 2.613281 -0.3125 2.824219 -0.3125 C 2.910156 -0.3125 3.019531 -0.3125 3.15625 -0.3125 C 3.292969 -0.3125 3.40625 -0.316406 3.5 -0.328125 C 3.597656 -0.335938 3.695312 -0.355469 3.800781 -0.382812 C 3.902344 -0.410156 3.976562 -0.445312 4.019531 -0.488281 C 4.132812 -0.613281 4.257812 -0.796875 4.382812 -1.042969 C 4.511719 -1.289062 4.59375 -1.472656 4.628906 -1.585938 Z "/>
</g>
<g id="glyph-0-1">
<path d="M 4.410156 0 L 2.578125 0 L 2.578125 -0.25 C 2.636719 -0.253906 2.699219 -0.261719 2.769531 -0.265625 C 2.839844 -0.269531 2.898438 -0.28125 2.941406 -0.296875 C 3.015625 -0.320312 3.066406 -0.359375 3.101562 -0.414062 C 3.136719 -0.472656 3.152344 -0.546875 3.152344 -0.636719 L 3.152344 -2.5625 C 3.152344 -2.828125 3.089844 -3.035156 2.964844 -3.179688 C 2.839844 -3.324219 2.683594 -3.394531 2.503906 -3.394531 C 2.371094 -3.394531 2.246094 -3.375 2.136719 -3.332031 C 2.023438 -3.289062 1.925781 -3.238281 1.839844 -3.179688 C 1.753906 -3.121094 1.6875 -3.058594 1.640625 -2.992188 C 1.589844 -2.921875 1.554688 -2.871094 1.53125 -2.828125 L 1.53125 -0.675781 C 1.53125 -0.589844 1.546875 -0.519531 1.582031 -0.464844 C 1.617188 -0.40625 1.671875 -0.363281 1.742188 -0.335938 C 1.796875 -0.308594 1.855469 -0.289062 1.914062 -0.277344 C 1.976562 -0.265625 2.042969 -0.253906 2.109375 -0.25 L 2.109375 0 L 0.273438 0 L 0.273438 -0.25 C 0.332031 -0.253906 0.390625 -0.261719 0.453125 -0.265625 C 0.515625 -0.269531 0.570312 -0.28125 0.613281 -0.296875 C 0.6875 -0.320312 0.738281 -0.359375 0.773438 -0.414062 C 0.808594 -0.472656 0.824219 -0.546875 0.824219 -0.636719 L 0.824219 -2.949219 C 0.824219 -3.035156 0.804688 -3.113281 0.769531 -3.183594 C 0.730469 -3.257812 0.679688 -3.316406 0.613281 -3.359375 C 0.566406 -3.390625 0.511719 -3.414062 0.445312 -3.425781 C 0.378906 -3.441406 0.308594 -3.449219 0.230469 -3.457031 L 0.230469 -3.707031 L 1.476562 -3.789062 L 1.53125 -3.738281 L 1.53125 -3.207031 L 1.550781 -3.207031 C 1.609375 -3.269531 1.6875 -3.34375 1.777344 -3.425781 C 1.867188 -3.511719 1.953125 -3.582031 2.035156 -3.632812 C 2.128906 -3.695312 2.242188 -3.746094 2.371094 -3.785156 C 2.5 -3.828125 2.644531 -3.847656 2.804688 -3.847656 C 3.164062 -3.847656 3.433594 -3.734375 3.605469 -3.511719 C 3.777344 -3.285156 3.867188 -2.988281 3.867188 -2.617188 L 3.867188 -0.667969 C 3.867188 -0.578125 3.882812 -0.507812 3.910156 -0.453125 C 3.941406 -0.398438 3.992188 -0.355469 4.066406 -0.328125 C 4.128906 -0.300781 4.179688 -0.285156 4.226562 -0.273438 C 4.269531 -0.261719 4.332031 -0.253906 4.410156 -0.25 Z "/>
</g>
<g id="glyph-0-2">
<path d="M 4.375 -0.0664062 L 3.066406 0.015625 L 3.007812 -0.0390625 L 3.007812 -0.386719 L 2.976562 -0.394531 C 2.847656 -0.25 2.683594 -0.128906 2.488281 -0.0351562 C 2.296875 0.0585938 2.097656 0.105469 1.894531 0.105469 C 1.679688 0.105469 1.476562 0.0585938 1.277344 -0.0351562 C 1.078125 -0.132812 0.90625 -0.265625 0.757812 -0.4375 C 0.609375 -0.613281 0.492188 -0.820312 0.402344 -1.066406 C 0.316406 -1.3125 0.273438 -1.582031 0.273438 -1.878906 C 0.273438 -2.152344 0.320312 -2.40625 0.414062 -2.652344 C 0.507812 -2.894531 0.636719 -3.105469 0.800781 -3.289062 C 0.953125 -3.457031 1.144531 -3.59375 1.367188 -3.695312 C 1.589844 -3.796875 1.820312 -3.847656 2.050781 -3.847656 C 2.226562 -3.847656 2.398438 -3.824219 2.566406 -3.78125 C 2.734375 -3.734375 2.878906 -3.679688 3 -3.613281 L 3 -4.917969 C 3 -5.023438 2.980469 -5.121094 2.945312 -5.207031 C 2.910156 -5.296875 2.863281 -5.363281 2.796875 -5.40625 C 2.726562 -5.457031 2.632812 -5.492188 2.511719 -5.511719 C 2.390625 -5.535156 2.261719 -5.550781 2.121094 -5.558594 L 2.121094 -5.796875 L 3.65625 -5.878906 L 3.714844 -5.820312 L 3.714844 -0.773438 C 3.714844 -0.6875 3.730469 -0.609375 3.765625 -0.546875 C 3.800781 -0.488281 3.847656 -0.433594 3.914062 -0.390625 C 3.964844 -0.359375 4.03125 -0.339844 4.125 -0.335938 C 4.214844 -0.328125 4.296875 -0.320312 4.375 -0.320312 L 4.375 -0.0664062 M 3 -0.726562 L 3 -2.917969 C 2.980469 -2.980469 2.945312 -3.054688 2.902344 -3.128906 C 2.855469 -3.207031 2.800781 -3.273438 2.730469 -3.339844 C 2.65625 -3.402344 2.570312 -3.453125 2.472656 -3.496094 C 2.375 -3.539062 2.257812 -3.558594 2.128906 -3.558594 C 1.976562 -3.558594 1.835938 -3.519531 1.710938 -3.441406 C 1.582031 -3.363281 1.46875 -3.25 1.371094 -3.101562 C 1.277344 -2.960938 1.203125 -2.78125 1.148438 -2.5625 C 1.09375 -2.34375 1.066406 -2.101562 1.066406 -1.835938 C 1.066406 -1.621094 1.085938 -1.429688 1.128906 -1.253906 C 1.167969 -1.082031 1.238281 -0.921875 1.332031 -0.769531 C 1.421875 -0.628906 1.535156 -0.515625 1.671875 -0.429688 C 1.808594 -0.34375 1.972656 -0.300781 2.164062 -0.300781 C 2.363281 -0.300781 2.53125 -0.34375 2.664062 -0.433594 C 2.796875 -0.523438 2.910156 -0.617188 3 -0.726562 Z "/>
</g>
</g>
</defs>
<g fill="rgb(100%, 100%, 100%)" fill-opacity="1">
<use xlink:href="#glyph-0-0" x="30" y="27.131836"/>
<use xlink:href="#glyph-0-1" x="35" y="27.131836"/>
<use xlink:href="#glyph-0-2" x="40" y="27.131836"/>
</g>
</svg>
